<svg width="8" height="12" viewBox="0 0 8 12" fill="none" xmlns="http://www.w3.org/2000/svg">
<path fill-rule="evenodd" clip-rule="evenodd" d="M0.646039 7.64601C0.692485 7.59945 0.74766 7.5625 0.808405 7.5373C0.869151 7.51209 0.934272 7.49911 1.00004 7.49911C1.06581 7.49911 1.13093 7.51209 1.19167 7.5373C1.25242 7.5625 1.30759 7.59945 1.35404 7.64601L4.00004 10.293L6.64604 7.64601C6.73993 7.55212 6.86726 7.49938 7.00004 7.49938C7.13281 7.49938 7.26015 7.55212 7.35404 7.64601C7.44793 7.7399 7.50067 7.86723 7.50067 8.00001C7.50067 8.13278 7.44793 8.26012 7.35404 8.35401L4.35404 11.354C4.30759 11.4006 4.25242 11.4375 4.19167 11.4627C4.13093 11.4879 4.06581 11.5009 4.00004 11.5009C3.93427 11.5009 3.86915 11.4879 3.80841 11.4627C3.74766 11.4375 3.69248 11.4006 3.64604 11.354L0.646039 8.35401C0.599476 8.30756 0.562533 8.25239 0.537326 8.19164C0.51212 8.1309 0.499146 8.06578 0.499146 8.00001C0.499146 7.93424 0.51212 7.86912 0.537326 7.80838C0.562533 7.74763 0.599476 7.69245 0.646039 7.64601V7.64601Z" fill="black"/>
<path fill-rule="evenodd" clip-rule="evenodd" d="M4 0.5C4.13261 0.5 4.25979 0.552679 4.35355 0.646447C4.44732 0.740215 4.5 0.867392 4.5 1V10C4.5 10.1326 4.44732 10.2598 4.35355 10.3536C4.25979 10.4473 4.13261 10.5 4 10.5C3.86739 10.5 3.74021 10.4473 3.64645 10.3536C3.55268 10.2598 3.5 10.1326 3.5 10V1C3.5 0.867392 3.55268 0.740215 3.64645 0.646447C3.74021 0.552679 3.86739 0.5 4 0.5V0.5Z" fill="black"/>
</svg>
